<svg version="1.1" xmlns="http://www.w3.org/2000/svg" x="0" y="0" viewBox="0 0 100 50">
  <rect x="0" y="0" fill="#FFFFFF" width="100" height="50"/>
  <polygon fill="#CF142B" points="45,0 45,20 0,20 0,30 45,30 45,50 55,50 55,30 100,30 100,20 55,20 55,0"/>
  <polygon fill="#CF142B" points="0,0 0,2.8 27.7,16.6 33.1,16.6"/>
  <polygon fill="#CF142B" points="100,0 94.3,0 61.1,16.6 66.7,16.6"/>
  <polygon fill="#CF142B" points="100,50 100,47.2 72.2,33.3 66.7,33.3"/>
  <polygon fill="#CF142B" points="0,50 5.7,50 38.8,33.3 33.2,33.3"/>
	<polygon fill="#00247D" points="0,4.6 0,16.6 24,16.6"/>
	<polygon fill="#00247D" points="9.3,0 41.6,0 41.6,16.6"/>
	<polygon fill="#00247D" points="58.3,0 58.3,16.6 90.7,0"/>
	<polygon fill="#00247D" points="100,4.6 100,16.6 76,16.6"/>
	<polygon fill="#00247D" points="100,33.3 76,33.3 100,45.3"/>
	<polygon fill="#00247D" points="90.7,50 58.3,50 58.3,33.8"/>
	<polygon fill="#00247D" points="9.3,50 41.6,50 41.6,33.8"/>
	<polygon fill="#00247D" points="0,45.3 0,33.3 24,33.3"/>
</svg>